# xmcd
#
# Track frame offsets:
#	182
#	13732
#	25507
#	39382
#	54682
#	68932
#	84907
#	98782
#	113782
#	126157
#	139957
#	154207
#
# Disc length: 2225 seconds
# Revision: 1
# Processed by: cddbd v1.5.2PL0 Copyright (c) Steve Scherf et al.
# Submitted via: dBpowerAMP V12.0
#
DISCID=9a08af0c
DTITLE=Bob Easter - Land of The Big Blue Sky
DYEAR=2000
DGENRE=Country
TTITLE0=The Truckies Salute
TTITLE1=Exiled
TTITLE2=My Last Old Dog
TTITLE3=Aussie on My Mind
TTITLE4=My Old Home Town
TTITLE5=Relics of The Past
TTITLE6=Whoa Bullocks Whoa
TTITLE7=When Your Short of a Quid
TTITLE8=Many Years Ago
TTITLE9=Why Do Legends Die So Young
TTITLE10=To An Old Stockman
TTITLE11=Land of The Big Blue Sky
EXTD=
EXTT0=
EXTT1=
EXTT2=
EXTT3=
EXTT4=
EXTT5=
EXTT6=
EXTT7=
EXTT8=
EXTT9=
EXTT10=
EXTT11=
PLAYORDER=
